

<svg version="1.0" 
 viewBox="0 0 215.000000 234.000000"
 preserveAspectRatio="xMidYMid meet">

<g transform="translate(0.000000,234.000000) scale(0.100000,-0.100000)"
fill="#000000" stroke="none">
<path d="M922 2302 c-36 -34 -62 -85 -50 -98 8 -7 38 7 33 16 -3 5 11 14 31
20 62 21 223 -5 196 -32 -6 -6 -8 -16 -6 -23 4 -10 -13 -12 -78 -8 -115 6
-172 -6 -176 -36 -6 -42 7 -68 43 -85 19 -9 35 -23 35 -30 0 -23 -44 -55 -90
-65 -59 -13 -84 -44 -162 -200 -35 -69 -89 -165 -120 -213 -32 -48 -67 -106
-78 -127 -11 -22 -30 -47 -42 -56 -22 -15 -24 -14 -41 6 -9 12 -17 30 -17 40
0 25 -22 34 -48 20 -31 -16 -34 -48 -6 -66 21 -13 24 -23 24 -75 0 -63 15 -90
51 -90 30 0 23 -20 -23 -67 -23 -23 -40 -45 -37 -47 2 -2 26 5 52 16 28 12 52
17 57 12 5 -5 66 -115 135 -244 70 -129 155 -284 189 -345 60 -109 61 -111 61
-190 0 -44 4 -86 8 -92 11 -17 57 -16 100 2 43 18 71 19 165 10 58 -6 72 -5
73 6 2 38 -3 109 -11 154 -8 41 -4 90 26 280 26 170 37 276 41 405 6 193 -2
260 -43 336 -23 44 -24 48 -8 65 11 13 19 49 25 116 5 54 12 117 15 139 l6 41
96 -28 c129 -38 155 -37 221 7 30 20 52 30 49 23 -3 -8 -20 -60 -37 -117 -18
-57 -38 -105 -46 -108 -23 -9 3 -51 44 -70 88 -43 250 7 213 66 -11 18 -92
289 -92 309 0 7 48 11 145 11 80 0 145 -2 145 -4 0 -19 -101 -301 -109 -304
-20 -7 -11 -30 19 -56 58 -48 173 -44 226 9 27 27 31 45 11 45 -19 0 -103 300
-87 310 17 11 4 16 -84 34 -70 15 -83 21 -124 62 -41 42 -49 45 -81 40 -23 -4
-51 -21 -85 -54 -28 -27 -83 -68 -122 -91 l-71 -42 -64 25 c-35 13 -90 39
-121 58 -31 19 -83 40 -114 47 -88 17 -136 72 -75 84 38 8 50 47 42 142 -9
104 -48 145 -137 145 -45 0 -55 -4 -92 -38z m-68 -405 c55 -41 91 -50 179 -45
74 5 79 4 52 -8 -16 -7 -64 -13 -106 -14 -83 0 -148 25 -177 68 -13 20 -13 22
3 22 10 0 32 -10 49 -23z m1205 -154 c23 -78 41 -146 41 -152 0 -7 -34 -11
-96 -11 -73 0 -95 3 -92 13 3 6 26 76 53 155 26 79 48 142 50 140 2 -2 22 -67
44 -145z m-336 -18 c21 -72 37 -136 37 -143 0 -9 -27 -12 -95 -12 -69 0 -95 3
-95 12 0 20 81 261 93 276 6 7 13 9 17 5 4 -4 23 -67 43 -138z m-537 -4 c-48
-118 -141 -213 -209 -213 -46 0 -84 18 -92 42 -9 29 1 37 22 18 45 -39 61 -41
114 -11 62 33 110 88 151 171 17 34 33 61 35 58 2 -2 -7 -31 -21 -65z m-360
-82 c7 -30 14 -73 14 -96 0 -29 5 -45 17 -52 16 -9 14 -16 -22 -87 -40 -77
-40 -77 -44 -212 -3 -147 9 -290 40 -476 11 -65 19 -125 17 -132 -2 -8 -71
120 -155 284 l-152 298 36 37 c20 20 34 39 30 43 -3 4 -28 -3 -54 -14 -26 -11
-49 -19 -50 -18 -2 1 4 26 13 55 11 37 33 73 78 124 34 40 74 96 89 125 30 60
117 185 124 178 2 -2 11 -28 19 -57z m354 -45 c0 -23 -55 -74 -81 -74 -18 0
-15 5 20 30 23 17 44 37 48 45 7 20 13 19 13 -1z m-243 -239 c60 -40 69 -42
97 -18 12 10 8 3 -9 -16 -47 -52 -63 -57 -92 -29 -27 25 -68 98 -56 98 5 0 32
-16 60 -35z m249 -237 c-8 -157 -29 -351 -52 -468 -20 -108 -60 -234 -79 -250
-8 -6 -33 -14 -57 -17 l-42 -6 42 40 c102 97 156 312 178 711 4 67 9 122 12
122 3 0 2 -60 -2 -132z m-519 -265 c79 -163 141 -299 138 -301 -4 -5 -295 579
-295 593 0 28 36 -38 157 -292z m217 -168 c36 -133 44 -144 98 -138 l43 4 -35
-30 c-19 -17 -40 -31 -46 -31 -21 0 -70 143 -89 260 -11 71 0 44 29 -65z m276
-195 c-7 -33 -10 -77 -7 -99 l5 -38 -29 11 c-21 7 -27 15 -23 26 4 8 19 49 33
91 14 42 28 75 30 73 2 -2 -2 -31 -9 -64z"/>
<path d="M73 1394 c-21 -32 -29 -134 -15 -184 l9 -35 11 25 c9 22 11 18 11
-31 1 -91 44 -103 78 -22 14 34 18 115 6 126 -3 4 -15 0 -25 -10 -17 -15 -18
-14 -18 26 0 51 -19 131 -31 131 -5 0 -16 -12 -26 -26z"/>
<path d="M1949 1393 c-6 -15 -12 -54 -12 -85 -2 -61 -6 -68 -27 -43 -7 8 -16
12 -21 9 -14 -8 -10 -81 6 -122 36 -86 75 -71 76 30 1 63 1 63 13 28 13 -34
13 -34 21 -11 14 44 9 144 -8 178 -24 45 -35 49 -48 16z"/>
<path d="M6 1178 c-13 -49 -5 -97 26 -159 29 -58 33 -62 38 -39 l6 25 21 -32
c11 -18 23 -30 26 -26 4 3 7 -2 7 -12 0 -15 2 -16 17 -4 39 33 66 134 44 168
-11 18 -26 8 -60 -40 l-28 -38 -6 40 c-5 37 -62 139 -78 139 -4 0 -9 -10 -13
-22z"/>
<path d="M2017 1171 c-39 -46 -61 -113 -52 -158 7 -34 8 -36 16 -15 12 32 19
27 13 -10 l-6 -33 21 30 c35 48 51 94 51 144 0 68 -12 79 -43 42z"/>
<path d="M1865 1073 c-5 -29 -1 -47 22 -91 15 -30 33 -53 38 -51 6 2 9 7 8 12
-2 4 2 6 9 5 33 -7 13 92 -27 135 -34 36 -41 34 -50 -10z"/>
<path d="M10 928 c0 -54 30 -114 81 -163 l42 -40 -7 30 c-6 30 -6 30 10 8 20
-28 31 -29 37 -5 3 10 5 6 6 -10 1 -29 15 -38 24 -15 3 6 6 -10 6 -36 1 -56
19 -104 50 -131 20 -18 21 -18 21 -1 0 18 1 18 15 -1 13 -18 14 -16 15 27 0
63 -17 108 -57 150 -31 33 -33 39 -27 77 7 43 -18 132 -36 132 -5 0 -19 -23
-33 -51 -24 -50 -24 -50 -39 -27 -19 29 -90 98 -100 98 -4 0 -8 -19 -8 -42z"/>
<path d="M1985 914 l-60 -60 -23 49 c-18 40 -24 47 -36 38 -19 -16 -35 -89
-29 -129 5 -28 0 -39 -25 -65 -41 -45 -51 -67 -59 -137 -4 -42 -2 -60 6 -60 6
0 11 6 11 13 0 8 3 8 9 -2 24 -38 71 52 71 135 0 53 1 56 15 38 14 -18 14 -18
15 6 0 19 2 22 10 10 7 -12 12 -11 31 5 22 20 22 20 15 -2 -11 -35 6 -27 45
20 55 64 70 102 67 155 l-3 47 -60 -61z"/>
<path d="M40 735 c0 -23 28 -86 48 -109 25 -28 93 -76 108 -76 8 0 11 6 7 17
-4 11 -3 14 5 9 7 -4 12 -1 12 9 0 45 -70 123 -132 149 -46 20 -48 20 -48 1z"/>
<path d="M1960 724 c-60 -34 -78 -52 -102 -97 -16 -32 -17 -41 -6 -55 7 -9 13
-19 15 -21 4 -6 54 28 86 58 33 30 67 91 67 121 0 26 -5 25 -60 -6z"/>
<path d="M345 591 c-3 -22 -3 -61 1 -87 l7 -48 -32 27 c-18 14 -55 33 -83 42
-54 16 -118 20 -118 8 0 -4 12 -24 26 -45 31 -44 106 -84 174 -93 l45 -6 -30
25 c-16 14 -26 26 -22 26 15 0 52 -22 81 -49 l28 -26 -4 33 c-5 38 -1 41 12 7
28 -73 41 24 16 110 -13 42 -68 115 -87 115 -4 0 -10 -18 -14 -39z"/>
<path d="M1678 611 c-37 -29 -66 -95 -74 -168 -7 -71 6 -84 31 -30 l15 32 -6
-39 -5 -39 38 32 c20 17 44 31 53 31 12 -1 12 -3 -2 -14 -10 -7 -18 -17 -18
-21 0 -13 82 4 128 27 40 19 102 87 102 111 0 13 -97 1 -141 -17 -19 -8 -46
-24 -60 -35 l-27 -21 5 63 c3 34 1 72 -4 85 l-9 23 -26 -20z"/>
<path d="M474 423 c14 -58 61 -138 95 -160 39 -27 56 -29 47 -8 -7 18 5 20 23
3 24 -22 4 52 -27 102 -31 51 -83 90 -120 90 -21 0 -23 -3 -18 -27z"/>
<path d="M1525 431 c-43 -27 -82 -70 -99 -113 -20 -46 -22 -78 -4 -60 17 17
28 15 21 -4 -10 -26 36 -8 75 29 29 29 72 118 72 152 0 20 -29 19 -65 -4z"/>
<path d="M265 350 c-12 -19 62 -87 113 -105 50 -16 142 -20 142 -6 0 5 -14 14
-32 20 -17 6 -29 13 -26 16 3 3 17 1 32 -4 20 -8 26 -7 26 3 0 16 -25 39 -69
61 -43 22 -175 33 -186 15z"/>
<path d="M1639 345 c-44 -14 -99 -55 -99 -73 0 -5 12 -8 28 -5 24 3 25 2 6 -6
-12 -5 -25 -15 -29 -22 -6 -9 9 -11 63 -7 52 4 82 12 116 32 46 27 84 71 72
83 -13 13 -113 12 -157 -2z"/>
<path d="M650 343 c0 -51 69 -161 110 -175 8 -3 12 -9 8 -13 -10 -10 -53 -9
-103 3 l-40 10 40 1 39 1 -20 21 c-26 26 -88 41 -134 32 -47 -8 -100 -31 -100
-42 0 -6 15 -20 33 -33 27 -20 44 -23 114 -23 78 0 81 -1 65 -18 -16 -18 -15
-20 3 -33 49 -36 107 -38 188 -8 47 18 45 18 49 -8 2 -13 11 -24 21 -26 15 -3
17 6 17 78 0 72 -2 81 -17 78 -13 -2 -20 -16 -23 -43 -4 -35 -8 -40 -33 -43
-18 -2 -26 1 -22 7 3 6 15 11 26 11 34 0 20 19 -23 31 -24 7 -50 19 -58 27
-13 12 -12 13 8 7 16 -4 22 -2 22 8 0 21 -61 107 -90 128 -30 21 -80 35 -80
22z"/>
<path d="M1360 334 c-48 -21 -68 -41 -97 -97 -26 -53 -27 -80 -1 -53 23 22 35
20 14 -3 -10 -10 -32 -22 -51 -25 -40 -8 -69 -36 -37 -36 36 0 32 -16 -4 -17
-34 -1 -34 -1 -34 43 0 33 -4 44 -15 44 -13 0 -15 -13 -13 -77 3 -75 20 -107
26 -51 3 26 4 26 37 12 89 -37 154 -37 212 1 l24 16 -21 17 c-21 17 -19 17 53
14 78 -4 115 7 150 46 17 19 17 20 -25 37 -56 23 -148 24 -182 1 -34 -21 -33
-36 2 -37 25 -1 24 -2 -8 -10 -43 -12 -48 -13 -79 -11 -23 2 -22 4 16 37 42
36 69 81 79 134 7 35 3 36 -46 15z"/>
<path d="M1067 184 c-4 -4 -7 -41 -7 -81 0 -66 2 -74 18 -71 14 3 17 15 17 77
0 69 -9 93 -28 75z"/>
<path d="M960 101 c0 -65 3 -81 15 -81 19 0 27 33 23 100 -2 43 -7 56 -20 58
-16 3 -18 -6 -18 -77z"/>
<path d="M1010 100 c0 -62 3 -80 14 -80 18 0 29 59 20 115 -4 29 -11 45 -20
45 -11 0 -14 -18 -14 -80z"/>
</g>
</svg>
