<?xml version="1.0" encoding="iso-8859-1"?>
<!-- Generator: Adobe Illustrator 19.0.0, SVG Export Plug-In . SVG Version: 6.00 Build 0)  -->
<svg version="1.1" id="Layer_1" xmlns="http://www.w3.org/2000/svg" xmlns:xlink="http://www.w3.org/1999/xlink" x="0px" y="0px"
	 viewBox="0 0 512 512" style="enable-background:new 0 0 512 512;" xml:space="preserve">
<g>
	<g>
		<path d="M0,336.74v44.7c0,20.686,16.829,37.515,37.515,37.515h134.503l-5.733,39.567h-28.913v30.417h24.506h188.242h24.506
			v-30.417h-28.913l-5.733-39.567h134.503c20.686,0,37.515-16.829,37.515-37.515v-44.7H0z M276.948,393.057h-41.897V362.64h41.897
			V393.057z"/>
	</g>
</g>
<g>
	<g>
		<path d="M474.485,23.061H37.515C16.829,23.061,0,39.89,0,60.575v245.748h512V60.575C512,39.89,495.171,23.061,474.485,23.061z
			 M240.792,265.768h-0.001H90.057V83.895h150.735V265.768z M421.943,265.768L421.943,265.768H271.208V83.895h150.735V265.768z"/>
	</g>
</g>
<g>
	<g>
		<rect x="120.057" y="112.879" width="90.745" height="30.417"/>
	</g>
</g>
<g>
	<g>
		<rect x="120.057" y="159.62" width="90.745" height="30.417"/>
	</g>
</g>
<g>
	<g>
		<rect x="120.057" y="206.371" width="90.745" height="30.417"/>
	</g>
</g>
<g>
	<g>
		<rect x="301.202" y="112.879" width="90.745" height="30.417"/>
	</g>
</g>
<g>
	<g>
		<rect x="301.202" y="159.62" width="90.745" height="30.417"/>
	</g>
</g>
<g>
	<g>
		<rect x="301.202" y="206.371" width="90.745" height="30.417"/>
	</g>
</g>
<g>
</g>
<g>
</g>
<g>
</g>
<g>
</g>
<g>
</g>
<g>
</g>
<g>
</g>
<g>
</g>
<g>
</g>
<g>
</g>
<g>
</g>
<g>
</g>
<g>
</g>
<g>
</g>
<g>
</g>
</svg>
