<?xml version="1.0" standalone="no"?>
<!DOCTYPE svg PUBLIC "-//W3C//DTD SVG 20010904//EN"
 "http://www.w3.org/TR/2001/REC-SVG-20010904/DTD/svg10.dtd">
<svg version="1.0"  viewBox="0 0 512.000000 512.000000"
 preserveAspectRatio="xMidYMid meet">

<g transform="translate(0.000000,512.000000) scale(0.100000,-0.100000)"
fill="#000000" stroke="none">
<path d="M4620 4945 c38 -38 51 -58 44 -65 -6 -6 -231 -197 -500 -424 -393
-333 -492 -412 -506 -405 -30 16 -109 10 -144 -11 l-33 -21 -267 126 c-147 69
-390 183 -541 253 -238 111 -273 130 -278 152 -18 80 -99 138 -176 125 -75
-13 -129 -81 -129 -163 0 -37 -5 -42 -316 -317 -174 -154 -326 -288 -339 -297
-21 -17 -25 -17 -61 -2 -21 9 -55 14 -77 12 -38 -4 -40 -2 -98 71 -44 55 -59
81 -55 96 18 63 17 91 -6 135 -45 88 -157 114 -230 52 -59 -50 -73 -121 -37
-194 l20 -43 -234 -480 -234 -480 -42 -6 c-104 -14 -161 -124 -113 -219 54
-108 212 -108 269 0 28 54 29 78 2 141 l-22 50 234 479 c222 458 234 480 261
482 15 0 32 1 37 2 5 1 37 -34 71 -76 52 -65 60 -80 51 -97 -17 -31 -13 -103
8 -141 19 -37 88 -80 127 -80 41 0 103 31 125 62 12 16 24 51 28 78 l6 49 345
304 c343 303 345 305 372 291 49 -25 121 -14 164 27 21 19 21 19 554 -230
l534 -250 11 -45 c22 -86 72 -126 157 -126 87 0 142 58 144 152 l1 58 499 424
499 424 63 -61 62 -61 0 152 0 152 -152 0 -152 0 54 -55z"/>
<path d="M1900 2345 l0 -1445 350 0 350 0 0 1445 0 1445 -350 0 -350 0 0
-1445z"/>
<path d="M3365 2971 c-228 -42 -421 -123 -607 -255 l-57 -41 -1 -134 0 -134
48 44 c199 185 467 311 712 334 36 3 86 8 112 11 l48 5 2 -632 3 -632 573
-216 c364 -137 572 -221 572 -229 0 -8 -23 -59 -52 -114 -182 -355 -514 -598
-908 -663 -147 -25 -368 -17 -503 19 -248 64 -490 213 -639 391 l-63 75 -1252
0 -1253 0 0 -50 0 -50 1168 0 1168 0 39 -51 c192 -252 511 -448 848 -521 135
-29 415 -32 550 -5 281 56 530 185 734 380 121 116 207 231 282 376 129 252
178 494 159 776 -28 410 -241 798 -577 1050 -154 116 -376 215 -581 260 -119
26 -400 29 -525 6z"/>
<path d="M1000 1785 l0 -885 350 0 350 0 0 885 0 885 -350 0 -350 0 0 -885z"/>
<path d="M100 1550 l0 -650 350 0 350 0 0 650 0 650 -350 0 -350 0 0 -650z"/>
</g>
</svg>
