<?xml version="1.0" standalone="no"?>
<!DOCTYPE svg PUBLIC "-//W3C//DTD SVG 20010904//EN"
 "http://www.w3.org/TR/2001/REC-SVG-20010904/DTD/svg10.dtd">
<svg version="1.0"  viewBox="0 0 512.000000 512.000000"
 preserveAspectRatio="xMidYMid meet">

<g transform="translate(0.000000,512.000000) scale(0.100000,-0.100000)"
fill="#000000" stroke="none">
<path d="M2477 4790 c-99 -25 -191 -103 -235 -198 -22 -48 -27 -71 -27 -142 0
-104 29 -174 100 -245 70 -71 141 -100 245 -100 77 0 92 3 152 33 77 38 128
91 167 172 21 46 26 69 26 140 0 71 -5 94 -27 142 -33 72 -103 142 -173 174
-61 28 -167 39 -228 24z"/>
<path d="M1730 4533 c-63 -23 -151 -113 -173 -177 -40 -117 -14 -231 72 -317
64 -64 124 -89 211 -89 87 0 147 25 211 89 86 86 112 200 72 317 -23 67 -110
154 -177 177 -61 21 -156 21 -216 0z"/>
<path d="M3170 4533 c-63 -23 -151 -113 -173 -177 -40 -117 -14 -231 72 -317
64 -64 124 -89 211 -89 87 0 147 25 211 89 64 64 89 124 89 211 0 87 -25 147
-89 211 -38 38 -72 61 -105 72 -61 21 -156 21 -216 0z"/>
<path d="M2199 3986 c-57 -20 -97 -53 -126 -104 l-28 -47 -3 -345 c-2 -190 0
-360 3 -378 4 -21 27 -55 65 -96 l60 -64 0 -434 0 -435 23 -34 c44 -66 60 -69
367 -69 307 0 323 3 367 69 l23 34 0 435 0 434 60 64 c38 41 61 75 65 96 3 18
5 189 3 379 l-3 346 -30 49 c-19 30 -49 60 -79 79 l-49 30 -341 2 c-262 2
-349 0 -377 -11z"/>
<path d="M1537 3850 c-44 -13 -95 -57 -117 -100 -19 -37 -20 -59 -20 -349 l0
-309 50 -60 50 -60 0 -353 c0 -336 1 -356 20 -387 41 -67 61 -72 288 -72 l202
0 0 362 0 362 -39 45 c-21 26 -49 66 -62 91 l-24 45 0 398 0 397 -160 -1 c-88
0 -173 -5 -188 -9z"/>
<path d="M3235 3463 l0 -398 -24 -45 c-13 -25 -41 -65 -62 -91 l-39 -45 0
-362 0 -362 203 0 c226 0 246 5 287 72 19 31 20 51 20 387 l0 353 50 60 50 60
0 311 c0 305 -1 313 -23 352 -12 21 -42 53 -65 70 l-44 30 -176 3 -177 4 0
-399z"/>
<path d="M498 3529 c-21 -12 -31 -49 -52 -184 -37 -236 -48 -381 -53 -673 -8
-445 19 -763 74 -864 19 -34 126 -145 357 -371 181 -177 345 -339 364 -359
l34 -38 506 0 505 0 -6 173 c-9 303 -56 438 -201 583 -122 122 -223 171 -401
198 -51 8 -104 20 -118 28 -13 7 -111 94 -216 193 -196 185 -251 225 -306 225
-69 0 -117 -74 -93 -143 8 -23 93 -127 223 -273 116 -130 214 -247 219 -261
19 -55 -42 -116 -98 -97 -39 14 -454 487 -485 554 -60 130 -10 290 104 331
l32 12 -23 81 c-29 100 -29 127 -4 218 24 87 26 218 5 298 -37 139 -136 271
-256 343 -67 39 -83 43 -111 26z"/>
<path d="M4511 3503 c-120 -71 -221 -205 -255 -339 -22 -86 -21 -213 4 -302
25 -91 25 -118 -4 -218 l-23 -81 32 -12 c17 -6 45 -24 62 -41 86 -84 93 -224
16 -337 -58 -84 -437 -502 -461 -508 -58 -14 -117 47 -96 100 5 13 104 129
219 259 130 147 215 250 223 273 24 69 -24 143 -93 143 -55 0 -110 -40 -306
-225 -105 -99 -202 -186 -216 -193 -14 -8 -66 -20 -117 -28 -178 -26 -280 -77
-402 -198 -65 -65 -89 -98 -122 -166 -56 -119 -73 -203 -79 -412 l-6 -178 503
0 502 0 367 360 c257 251 376 375 394 409 93 169 104 1002 21 1536 -21 137
-32 173 -54 185 -29 16 -41 13 -109 -27z"/>
<path d="M1199 854 c-24 -26 -24 -26 -24 -256 l0 -230 28 -24 28 -24 523 0
c514 0 524 0 550 21 l26 20 0 238 c0 235 0 238 -23 259 l-23 22 -530 0 -531 0
-24 -26z"/>
<path d="M2812 857 c-21 -23 -22 -31 -22 -259 l0 -237 26 -20 c26 -21 36 -21
550 -21 l523 0 28 24 28 24 0 230 c0 230 0 230 -24 256 l-24 26 -532 0 -532 0
-21 -23z"/>
</g>
</svg>
