<?xml version="1.0" standalone="no"?>
<!DOCTYPE svg PUBLIC "-//W3C//DTD SVG 20010904//EN"
 "http://www.w3.org/TR/2001/REC-SVG-20010904/DTD/svg10.dtd">
<svg version="1.0"  viewBox="0 0 320.000000 320.000000"
 preserveAspectRatio="xMidYMid meet">

<g transform="translate(0.000000,320.000000) scale(0.100000,-0.100000)"
fill="#000000" stroke="none">
<path d="M1177 2710 c-461 -65 -853 -121 -871 -124 -54 -10 -111 -58 -141
-120 -62 -128 -38 -363 51 -483 16 -22 15 -22 -54 -43 -101 -31 -107 -66 -17
-106 87 -38 115 -97 115 -245 l0 -85 -73 -23 c-147 -47 -185 -85 -106 -105
l36 -9 -27 -41 c-43 -64 -54 -111 -54 -222 1 -152 41 -264 116 -323 13 -11
107 -47 209 -79 101 -33 364 -119 584 -190 l400 -130 105 25 c283 67 1544 373
1579 383 25 6 41 17 41 26 0 17 -99 67 -171 85 -48 13 -49 14 -51 53 -3 63 2
137 13 177 13 51 43 86 100 114 58 30 76 56 53 79 -8 9 -21 16 -27 16 -35 1
-38 17 -9 48 67 71 96 178 91 332 -3 90 -8 113 -31 160 -15 30 -26 55 -25 55
1 1 35 10 76 21 41 10 76 24 78 31 6 17 -36 42 -125 72 -43 15 -84 31 -91 36
-22 13 -10 189 17 241 24 47 35 58 93 87 47 24 65 46 57 69 -5 12 -1067 340
-1093 337 -6 -1 -387 -54 -848 -119z m-294 -426 c298 -97 549 -180 557 -184
12 -7 14 -37 11 -182 -1 -95 -6 -178 -9 -184 -5 -8 -186 39 -572 147 -628 175
-595 162 -625 261 -17 58 -20 186 -5 237 12 45 47 81 77 81 13 0 268 -79 566
-176z m2019 59 c-12 -29 -16 -68 -17 -160 l0 -122 -675 -167 c-371 -92 -681
-169 -687 -171 -10 -4 -13 27 -12 138 0 79 4 164 7 189 l7 44 685 142 c377 78
690 142 697 143 8 1 7 -10 -5 -36z m25 -488 c30 -21 46 -78 46 -165 0 -97 -18
-169 -51 -209 -26 -30 -56 -39 -592 -189 l-565 -158 -7 81 c-3 44 -6 128 -7
187 l-1 107 448 146 c246 80 492 161 547 180 112 38 151 42 182 20z m-1938
-206 c377 -77 689 -144 692 -147 4 -4 9 -89 12 -188 l4 -182 -51 12 c-28 7
-338 84 -688 172 l-638 159 0 106 c0 65 -6 125 -15 155 -17 57 -17 54 -8 54 3
0 315 -63 692 -141z m-194 -543 l560 -183 -3 -184 c-2 -101 -5 -186 -7 -187
-2 -2 -257 66 -567 153 -522 145 -565 158 -589 186 -73 84 -78 315 -8 374 17
14 36 25 42 25 7 0 264 -83 572 -184z m2008 47 c-9 -30 -16 -91 -17 -158 l-1
-110 -675 -167 c-371 -92 -681 -167 -688 -168 -10 0 -12 36 -6 183 4 100 8
183 9 184 6 9 296 61 312 57 11 -3 60 7 108 22 82 25 905 201 952 203 21 1 21
0 6 -46z"/>
</g>
</svg>
