<?xml version="1.0" standalone="no"?>
<!DOCTYPE svg PUBLIC "-//W3C//DTD SVG 20010904//EN"
 "http://www.w3.org/TR/2001/REC-SVG-20010904/DTD/svg10.dtd">
<svg version="1.0" 
  viewBox="0 0 320.000000 284.000000"
 preserveAspectRatio="xMidYMid meet">

<g transform="translate(0.000000,284.000000) scale(0.100000,-0.100000)"
fill="#000000" stroke="none">
<path d="M1529 2711 c-23 -24 -29 -38 -29 -75 0 -54 26 -89 85 -111 31 -12 33
-14 10 -10 -16 3 -38 8 -47 11 -26 8 -23 -21 4 -46 31 -29 83 -26 114 5 30 30
25 44 -13 39 -16 -2 -21 -1 -13 2 32 13 70 59 76 90 7 37 -14 85 -48 108 -12
9 -42 16 -66 16 -35 0 -49 -6 -73 -29z"/>
<path d="M1160 2676 c-105 -37 -340 -166 -340 -186 0 -18 52 -48 102 -60 47
-12 143 -9 233 5 l30 5 -32 -12 c-40 -16 -39 -26 1 -56 26 -19 39 -22 91 -17
56 5 58 5 31 -8 l-30 -13 48 -27 c27 -15 64 -27 83 -27 19 0 32 -4 29 -9 -8
-12 78 -20 141 -14 l51 6 -21 43 c-17 37 -26 44 -49 44 -45 0 -93 25 -119 61
-20 29 -24 46 -25 119 -2 120 -1 118 -29 145 -32 33 -106 33 -195 1z"/>
<path d="M1860 2682 c-23 -19 -25 -28 -31 -130 -7 -145 -34 -187 -130 -199
-32 -5 -45 -13 -60 -37 -28 -46 -24 -54 29 -58 68 -6 157 3 140 13 -8 6 -1 9
23 9 21 0 57 12 85 27 l48 27 -30 13 c-27 13 -25 13 31 8 54 -5 64 -3 95 20
19 14 34 29 32 33 -1 4 -17 13 -35 20 l-32 12 40 -5 c166 -23 268 -11 311 36
19 21 19 22 -5 38 -60 41 -212 124 -280 152 -100 42 -195 50 -231 21z"/>
<path d="M675 2449 c-118 -35 -345 -83 -465 -99 -118 -16 -117 -16 -89 -47 78
-84 248 -93 512 -27 97 24 299 93 334 113 15 9 14 10 -13 11 -55 0 -133 29
-150 55 -9 14 -19 24 -23 24 -3 -1 -51 -14 -106 -30z"/>
<path d="M2407 2456 c-18 -27 -94 -55 -151 -57 l-31 -1 30 -14 c58 -26 301
-102 396 -123 204 -44 314 -38 404 21 62 41 58 54 -17 62 -131 15 -515 99
-599 131 -10 4 -22 -3 -32 -19z"/>
<path d="M1566 2435 c-11 -29 -6 -59 18 -105 l24 -44 21 43 c14 27 21 56 19
79 -3 35 -5 37 -39 40 -26 2 -38 -1 -43 -13z"/>
<path d="M965 2371 c-123 -57 -370 -130 -516 -153 -43 -7 -79 -15 -79 -19 0
-20 93 -42 198 -47 169 -7 276 19 452 109 96 50 137 76 129 82 -83 66 -97 68
-184 28z"/>
<path d="M2097 2367 l-39 -32 74 -42 c92 -53 201 -98 297 -123 125 -33 312
-22 394 22 19 10 13 13 -57 25 -161 27 -390 95 -532 158 -73 32 -91 31 -137
-8z"/>
<path d="M1163 2313 c-174 -93 -283 -138 -428 -176 l-50 -13 37 -17 c52 -25
145 -32 223 -17 68 13 329 134 354 164 9 11 6 19 -19 36 -47 33 -84 41 -117
23z"/>
<path d="M1936 2294 c-49 -34 -47 -36 126 -123 148 -75 236 -98 334 -88 47 5
130 34 121 43 -2 2 -48 15 -103 29 -66 17 -146 48 -241 95 -79 38 -155 70
-171 70 -15 0 -45 -12 -66 -26z"/>
<path d="M1168 2167 c-161 -83 -171 -95 -89 -96 28 -1 40 6 67 37 62 73 216
132 305 118 21 -3 40 -2 44 4 4 6 -6 10 -23 10 -16 0 -56 2 -88 5 -58 4 -62 3
-216 -78z"/>
<path d="M1760 2240 c-71 -9 -64 -12 35 -15 111 -3 184 -32 252 -102 43 -43
58 -53 85 -52 81 1 70 13 -95 97 -168 85 -168 85 -277 72z"/>
<path d="M1522 2227 c-8 -10 -2 -20 25 -41 39 -32 53 -25 53 27 0 24 -4 27
-34 27 -18 0 -38 -6 -44 -13z"/>
<path d="M1613 2199 c3 -22 8 -43 10 -46 3 -3 24 10 47 28 38 31 40 34 24 46
-10 7 -33 13 -52 13 l-35 0 6 -41z"/>
<path d="M1722 2200 c-20 -10 -48 -29 -61 -44 -23 -25 -24 -27 -7 -45 24 -26
107 -44 141 -31 93 36 165 -24 165 -138 0 -50 -51 -99 -133 -127 l-67 -22 47
-18 c27 -9 67 -28 90 -40 l43 -24 47 33 c27 18 62 55 78 81 27 43 30 57 30
124 -1 118 -39 176 -147 226 -79 36 -177 47 -226 25z m48 -20 c0 -5 -5 -10
-11 -10 -5 0 -7 5 -4 10 3 6 8 10 11 10 2 0 4 -4 4 -10z"/>
<path d="M1305 2190 c-73 -23 -141 -78 -166 -134 -12 -26 -19 -65 -19 -107 0
-83 27 -138 97 -195 76 -62 148 -82 352 -99 149 -12 182 -18 227 -40 50 -25
84 -68 84 -108 0 -26 -39 -65 -85 -83 -25 -11 -45 -21 -44 -24 0 -4 77 -44
131 -68 13 -6 91 73 105 105 30 73 7 177 -53 236 -73 73 -162 101 -364 116
-152 10 -229 33 -281 82 -30 28 -31 32 -27 95 4 60 7 69 38 97 31 27 37 29 84
22 72 -10 123 -7 157 11 41 21 37 48 -13 84 -35 26 -50 30 -102 29 -34 0 -88
-9 -121 -19z m159 -21 c-3 -5 -10 -7 -15 -3 -5 3 -7 10 -3 15 3 5 10 7 15 3 5
-3 7 -10 3 -15z"/>
<path d="M1582 2100 c-18 -43 -22 -72 -22 -156 0 -56 3 -109 6 -118 4 -11 19
-16 45 -16 l39 0 0 123 c0 106 -3 129 -23 171 l-23 50 -22 -54z"/>
<path d="M1253 1639 c-22 -33 -28 -56 -31 -110 -4 -60 -1 -74 22 -113 50 -85
145 -124 332 -136 144 -9 190 -24 218 -70 33 -57 16 -108 -45 -134 l-28 -12
54 -28 c51 -28 54 -29 79 -13 89 59 74 235 -27 308 -53 38 -91 48 -222 58
-131 10 -182 24 -229 63 -50 41 -50 87 0 134 19 19 42 34 50 34 34 0 9 16 -49
31 -34 9 -70 19 -79 23 -13 6 -23 -3 -45 -35z"/>
<path d="M1570 1520 l0 -110 35 0 35 0 0 110 0 110 -35 0 -35 0 0 -110z"/>
<path d="M1332 1263 c-70 -137 -8 -264 141 -287 20 -3 53 -8 72 -11 19 -3 34
-9 34 -13 -1 -4 -1 -49 0 -99 1 -92 1 -93 26 -93 25 0 25 1 26 93 1 50 1 96 0
101 -4 22 75 -5 102 -34 49 -55 32 -121 -40 -155 -38 -18 -38 -19 -12 -25 14
-4 35 -13 48 -19 18 -10 27 -9 47 4 102 67 79 247 -38 304 -24 11 -52 21 -60
21 -41 0 -43 7 -40 110 l3 100 -36 0 -36 0 3 -101 3 -101 -47 5 c-59 7 -107
32 -117 60 -12 32 5 89 33 114 l25 21 -42 15 c-23 8 -50 18 -59 22 -13 5 -22
-3 -36 -32z m285 -299 c-3 -3 -12 -4 -19 -1 -8 3 -5 6 6 6 11 1 17 -2 13 -5z"/>
<path d="M1403 958 c-25 -30 -37 -97 -24 -138 25 -85 97 -134 222 -149 61 -8
78 -14 96 -36 34 -39 29 -72 -17 -116 l-39 -37 31 -11 c28 -10 33 -8 63 22 35
35 52 89 41 130 -14 57 -94 116 -156 117 -43 0 -98 20 -129 45 -40 34 -47 68
-21 116 25 49 25 46 -4 53 -13 3 -31 8 -38 11 -8 3 -20 0 -25 -7z"/>
<path d="M1450 650 c-7 -17 -10 -50 -7 -76 8 -71 45 -102 172 -146 55 -19 81
-69 65 -127 -9 -34 -33 -61 -54 -61 -3 0 -7 39 -8 87 -2 56 -7 88 -15 90 -9 3
-13 -21 -15 -87 l-3 -92 -25 20 c-21 17 -25 29 -25 70 0 36 6 56 20 72 16 18
17 23 5 30 -23 15 -28 12 -46 -22 -25 -47 -14 -125 20 -155 15 -13 33 -23 41
-23 9 0 16 -19 20 -57 8 -71 13 -88 14 -48 3 78 12 101 45 111 42 12 69 64 63
122 -6 58 -50 103 -128 131 -32 12 -65 32 -74 44 -21 30 -19 83 4 106 19 19
19 20 -11 30 -43 15 -44 15 -58 -19z"/>
<path d="M1580 580 c0 -79 0 -80 25 -80 25 0 25 1 25 80 0 79 0 80 -25 80 -25
0 -25 -1 -25 -80z"/>
</g>
</svg>
