<?xml version="1.0" standalone="no"?>
<!DOCTYPE svg PUBLIC "-//W3C//DTD SVG 20010904//EN"
 "http://www.w3.org/TR/2001/REC-SVG-20010904/DTD/svg10.dtd">
<svg version="1.0" xmlns="http://www.w3.org/2000/svg"
  viewBox="0 0 512.000000 512.000000"
 preserveAspectRatio="xMidYMid meet">

<g transform="translate(0.000000,512.000000) scale(0.100000,-0.100000)"
fill="#000000" stroke="none">
<path d="M1360 4353 c-509 -113 -928 -208 -931 -211 -9 -11 736 -3375 749
-3380 17 -5 1882 407 1913 423 38 20 61 61 60 108 0 34 -37 223 -57 288 -2 9
-23 22 -47 28 -75 23 -210 81 -294 129 l-83 46 0 395 0 396 -336 123 c-184 67
-339 120 -344 117 -5 -3 -12 -26 -16 -51 -7 -48 -24 -64 -69 -64 -25 0 -38
-11 -83 -69 -18 -23 -22 -24 -62 -13 -41 10 -46 9 -87 -20 l-44 -30 -39 26
c-37 24 -42 25 -91 14 -47 -11 -53 -10 -66 8 -40 55 -53 64 -92 64 -45 0 -57
11 -66 61 -6 31 -15 41 -54 63 l-48 26 5 50 c4 45 1 53 -27 85 -17 20 -31 38
-31 41 0 3 9 23 21 45 19 39 19 43 5 87 l-16 46 34 36 c29 29 35 44 38 85 3
49 4 50 48 66 38 14 47 23 64 63 l18 46 51 0 c45 0 55 4 88 36 l37 36 44 -16
c42 -16 45 -16 92 4 l48 22 32 -31 c27 -27 39 -31 84 -31 52 0 52 0 73 -44 18
-37 29 -46 68 -58 44 -13 46 -15 56 -66 8 -41 17 -58 47 -82 l37 -31 -14 -46
c-14 -45 -13 -49 11 -91 l26 -44 -29 -36 c-25 -32 -28 -44 -25 -84 3 -31 9
-48 17 -48 8 0 164 56 347 124 225 84 332 129 331 138 -14 89 -299 1350 -309
1370 -19 37 -63 58 -116 57 -24 -1 -459 -93 -968 -206z m462 -283 c0 -11 1
-26 2 -32 1 -9 -112 -38 -344 -89 -365 -80 -366 -80 -358 -27 3 20 29 28 328
94 179 40 335 73 348 73 15 1 22 -5 24 -19z m799 -2018 c4 -18 5 -32 4 -32 -2
0 -309 -68 -684 -150 -375 -83 -686 -148 -691 -145 -6 4 -10 19 -10 35 0 26 4
29 53 40 28 6 333 73 677 149 344 77 629 138 635 137 5 -1 12 -17 16 -34z m73
-328 c9 -22 7 -54 -2 -54 -5 0 -314 -67 -687 -150 -373 -82 -680 -148 -681
-147 -1 1 -5 16 -8 33 -6 27 -4 32 17 37 12 4 279 63 593 132 313 69 605 134
649 144 100 24 111 25 119 5z"/>
<path d="M257 4109 c-43 -10 -87 -24 -98 -30 -27 -14 -59 -68 -59 -99 0 -14
157 -738 349 -1609 244 -1104 355 -1592 369 -1610 10 -14 35 -34 55 -44 36
-18 40 -18 128 1 50 11 92 22 94 24 7 7 -741 3382 -750 3384 -6 1 -45 -7 -88
-17z"/>
<path d="M1503 3354 c-60 -22 -127 -86 -160 -152 -38 -78 -40 -183 -4 -256 53
-108 150 -169 271 -170 122 -1 215 56 271 167 30 58 37 159 14 226 -24 74
-100 154 -171 180 -65 25 -159 26 -221 5z"/>
<path d="M2943 3086 c-369 -138 -674 -253 -676 -256 -3 -3 304 -119 682 -258
l687 -252 509 190 c281 104 513 190 518 190 4 0 7 -121 7 -270 l0 -269 -25
-25 c-25 -25 -25 -28 -25 -181 0 -152 1 -156 25 -180 20 -21 34 -25 88 -25
109 0 121 25 115 239 -3 131 -3 133 -31 155 l-27 22 2 294 3 293 98 35 c54 19
94 39 90 43 -12 12 -1337 509 -1353 508 -8 -1 -317 -114 -687 -253z"/>
<path d="M4070 2374 c-228 -84 -422 -153 -431 -153 -9 -1 -195 64 -415 143
-219 79 -409 147 -421 150 l-23 7 0 -345 0 -345 53 -29 c129 -74 325 -140 517
-173 135 -24 370 -28 499 -10 177 26 405 96 578 178 l73 35 0 349 c0 192 -3
349 -7 348 -5 -1 -195 -70 -423 -155z"/>
</g>
</svg>
